<svg viewBox="0 0 200 200" xmlns="http://www.w3.org/2000/svg">
  <!-- Background circle with gradient for stability -->
  <defs>
    <linearGradient id="bgGradient" x1="0%" y1="0%" x2="100%" y2="100%">
      <stop offset="0%" style="stop-color:#E3F2FD;stop-opacity:1" />
      <stop offset="100%" style="stop-color:#F0F8FF;stop-opacity:1" />
    </linearGradient>
    
    <!-- Meta-inspired gradient -->
    <linearGradient id="metaGradient" x1="0%" y1="0%" x2="100%" y2="0%">
      <stop offset="0%" style="stop-color:#0866FF;stop-opacity:1" />
      <stop offset="50%" style="stop-color:#1877F2;stop-opacity:1" />
      <stop offset="100%" style="stop-color:#42A5F5;stop-opacity:1" />
    </linearGradient>
    
    <!-- WhatsApp green -->
    <linearGradient id="whatsappGradient" x1="0%" y1="0%" x2="100%" y2="100%">
      <stop offset="0%" style="stop-color:#25D366;stop-opacity:1" />
      <stop offset="100%" style="stop-color:#128C7E;stop-opacity:1" />
    </linearGradient>
    
    <!-- Peace dove shadow -->
    <filter id="softShadow">
      <feDropShadow dx="2" dy="2" stdDeviation="3" flood-opacity="0.3"/>
    </filter>
  </defs>
  
  <!-- Main background circle -->
  <circle cx="100" cy="100" r="95" fill="url(#bgGradient)" stroke="#E1E8ED" stroke-width="2"/>
  
  <!-- Meta-inspired infinity symbol (simplified) -->
  <path d="M60 80 Q40 60, 60 40 Q80 60, 100 80 Q120 60, 140 40 Q160 60, 140 80 Q120 100, 100 80 Q80 100, 60 80 Z" 
        fill="url(#metaGradient)" opacity="0.8"/>
  
  <!-- WhatsApp-inspired chat bubble -->
  <path d="M70 110 Q70 100, 80 100 L120 100 Q130 100, 130 110 L130 125 Q130 135, 120 135 L85 135 L75 145 L75 135 Q70 135, 70 125 Z" 
        fill="url(#whatsappGradient)"/>
  
  <!-- Multiple message indicators (bulk messaging) -->
  <circle cx="85" cy="115" r="2" fill="white"/>
  <circle cx="95" cy="115" r="2" fill="white"/>
  <circle cx="105" cy="115" r="2" fill="white"/>
  <circle cx="115" cy="115" r="2" fill="white"/>
  
  <!-- Peace dove (simplified, modern) -->
  <g transform="translate(140, 60)" filter="url(#softShadow)">
    <!-- Dove body -->
    <ellipse cx="0" cy="0" rx="12" ry="8" fill="white" stroke="#90CAF9" stroke-width="1"/>
    <!-- Wing -->
    <path d="M-8 -3 Q-15 -8, -12 -12 Q-8 -8, -2 -5" fill="#E3F2FD" stroke="#90CAF9" stroke-width="1"/>
    <!-- Olive branch -->
    <path d="M12 2 L20 6 M16 4 L18 2 M18 6 L20 4" stroke="#4CAF50" stroke-width="1.5" fill="none"/>
  </g>
  
  <!-- Stability anchor points (subtle geometric elements) -->
  <circle cx="50" cy="150" r="3" fill="#90CAF9" opacity="0.6"/>
  <circle cx="150" cy="150" r="3" fill="#90CAF9" opacity="0.6"/>
  <circle cx="100" cy="165" r="3" fill="#90CAF9" opacity="0.6"/>
  
  <!-- Connection lines (representing network/bulk messaging) -->
  <line x1="50" y1="150" x2="100" y2="165" stroke="#90CAF9" stroke-width="1" opacity="0.4"/>
  <line x1="150" y1="150" x2="100" y2="165" stroke="#90CAF9" stroke-width="1" opacity="0.4"/>
  
</svg>